<?xml version="1.0" encoding="utf-8"?>
<!-- Generator: Adobe Illustrator 21.1.0, SVG Export Plug-In . SVG Version: 6.00 Build 0)  -->
<svg version="1.1" id="Layer_1" xmlns="http://www.w3.org/2000/svg"  x="0px" y="0px"
	 viewBox="0 0 490.7 176.7" style="enable-background:new 0 0 490.7 176.7;" xml:space="preserve">
<style type="text/css">
	.st0{fill:#983925;}
	.st1{fill:#FF5C3E;}
	.st2{fill:#C05325;}
	.st3{fill:#FFFFFF;}
</style>
<g>
	<polygon class="st0" points="175.8,79.1 148.8,31.7 120.1,54 	"/>
	<polygon class="st1" points="70.1,31.5 19.6,132.2 120.1,54 	"/>
	<polygon class="st2" points="148.8,31.7 113.6,31.6 70.1,31.5 120.1,54 	"/>
</g>
<g>
	<path class="st3" d="M156.5,144.2h-4.8c-0.7,0-1.1-0.5-1.1-1.1v-27.6c0-4.8-1.9-6.5-6.8-6.5c-6.4,0-13,1.9-13,1.9v32.3
		c0,0.7-0.4,1.1-1.1,1.1H125c-0.8,0-1.2-0.5-1.2-1.1v-27.6c0-4.8-1.8-6.5-6.7-6.5c-6.4,0-13.1,1.9-13.1,1.9v32.3
		c0,0.7-0.4,1.1-1.1,1.1h-4.7c-0.8,0-1.2-0.5-1.2-1.1v-31.7c0-2.9,0.5-4.2,4.4-5.5c3.9-1.3,11.2-2.3,16.1-2.3c4.7,0,8.1,1,10.1,2.8
		c3.8-1.4,11.7-2.8,16.7-2.8c9.1,0,13.4,2.7,13.4,11v28.5C157.7,143.8,157.2,144.2,156.5,144.2z"/>
	<path class="st3" d="M191.8,145.2c-13.1,0-16.9-5.3-16.9-15.4v-24c0-0.7,0.5-1,1.1-1.1l4.9-1.1h0.2c0.6,0,0.8,0.5,0.8,1.1v25.8
		c0,6.6,2.3,9.5,9.9,9.5c9,0,9.9-4.4,9.9-9.7l-0.1-24.4c0-0.8,0.4-1.1,1.1-1.1l4.8-1.1h0.3c0.6,0,0.8,0.5,0.8,1.1v25.1
		C208.7,137.6,206.9,145.2,191.8,145.2z"/>
	<path class="st3" d="M258.9,144.2h-4.7c-0.8,0-1.2-0.5-1.2-1.1v-27.6c0-4.8-1.8-6.5-6.7-6.5c-6.4,0-13,1.9-13,1.9v32.3
		c0,0.7-0.4,1.1-1.1,1.1h-4.7c-0.8,0-1.2-0.5-1.2-1.1v-31.7c0-2.9,0.5-4.2,4.4-5.5c3.9-1.3,11.2-2.3,16-2.3c9.1,0,13.4,2.7,13.4,11
		v28.5C260,143.8,259.7,144.2,258.9,144.2z"/>
	<path class="st3" d="M284.5,98.2h-4.5c-0.8,0-1.3-0.5-1.3-1.3v-8.2c0-0.8,0.5-1.3,1.3-1.3h4.5c0.8,0,1.2,0.5,1.2,1.3v8.2
		C285.7,97.7,285.3,98.2,284.5,98.2z M284.7,144.2h-4.8c-0.7,0-1.1-0.5-1.1-1.1v-37.2c0-0.7,0.5-1.1,1.1-1.1h4.8
		c0.7,0,1.1,0.5,1.1,1.1v37.2C285.8,143.8,285.3,144.2,284.7,144.2z"/>
	<path class="st3" d="M338.2,143.5c0,0.4-0.3,0.7-0.8,0.7h-7.2c-0.3,0-0.5-0.2-0.8-0.4L314.8,127h-2.9v16.1c0,0.7-0.4,1.1-1.1,1.1
		H306c-0.8,0-1.2-0.5-1.2-1.1V89.6c0-0.7,0.4-1,1.1-1.1l4.9-1.1h0.2c0.6,0,0.8,0.5,0.8,1.1v33.4h2.9l14.4-16.9
		c0.2-0.2,0.5-0.4,0.7-0.4l6.4,0.2c0.5,0,0.8,0.4,0.8,0.7c0,0.2-0.1,0.3-0.2,0.4l-16,18.2l17.1,19.2
		C338.2,143.2,338.2,143.4,338.2,143.5z"/>
	<path class="st3" d="M368,145.2c-13.1,0-16.9-5.3-16.9-15.4v-24c0-0.7,0.5-1,1.1-1.1l4.9-1.1h0.2c0.6,0,0.8,0.5,0.8,1.1v25.8
		c0,6.6,2.3,9.5,9.9,9.5c9,0,9.9-4.4,9.9-9.7l-0.1-24.4c0-0.8,0.4-1.1,1.1-1.1l4.8-1.1h0.3c0.6,0,0.8,0.5,0.8,1.1v25.1
		C384.8,137.6,383,145.2,368,145.2z"/>
	<path class="st3" d="M462,144.2h-4.8c-0.7,0-1.1-0.5-1.1-1.1v-27.6c0-4.8-1.9-6.5-6.8-6.5c-6.4,0-13,1.9-13,1.9v32.3
		c0,0.7-0.4,1.1-1.1,1.1h-4.8c-0.8,0-1.2-0.5-1.2-1.1v-27.6c0-4.8-1.8-6.5-6.7-6.5c-6.4,0-13.1,1.9-13.1,1.9v32.3
		c0,0.7-0.4,1.1-1.1,1.1h-4.7c-0.8,0-1.2-0.5-1.2-1.1v-31.7c0-2.9,0.5-4.2,4.4-5.5c3.9-1.3,11.2-2.3,16.1-2.3c4.7,0,8.1,1,10.1,2.8
		c3.8-1.4,11.7-2.8,16.7-2.8c9.1,0,13.4,2.7,13.4,11v28.5C463.1,143.8,462.6,144.2,462,144.2z"/>
</g>
</svg>
